<mxfile host="app.diagrams.net" modified="2021-07-13T03:11:07.344Z" agent="5.0 (Windows NT 10.0; Win64; x64) AppleWebKit/537.36 (KHTML, like Gecko) Chrome/91.0.4472.124 Safari/537.36" etag="A5iW9ilWoz4xvb7JYVpY" version="14.8.5" type="github">
  <diagram id="prtHgNgQTEPvFCAcTncT" name="Page-1">
    <mxGraphModel dx="1422" dy="762" grid="1" gridSize="10" guides="1" tooltips="1" connect="1" arrows="1" fold="1" page="1" pageScale="1" pageWidth="827" pageHeight="1169" math="0" shadow="0">
      <root>
        <mxCell id="0" />
        <mxCell id="1" parent="0" />
        <mxCell id="4Wl7dw73MDfe35d8DVJq-1" value="" style="endArrow=classic;html=1;strokeWidth=5;" edge="1" parent="1">
          <mxGeometry width="50" height="50" relative="1" as="geometry">
            <mxPoint x="140" y="110" as="sourcePoint" />
            <mxPoint x="140" y="600" as="targetPoint" />
          </mxGeometry>
        </mxCell>
        <mxCell id="4Wl7dw73MDfe35d8DVJq-3" value="&lt;font style=&quot;font-size: 18px&quot;&gt;FEATURE X&lt;/font&gt;" style="text;html=1;strokeColor=none;fillColor=none;align=center;verticalAlign=middle;whiteSpace=wrap;rounded=0;" vertex="1" parent="1">
          <mxGeometry x="110" y="80" width="120" height="20" as="geometry" />
        </mxCell>
        <mxCell id="4Wl7dw73MDfe35d8DVJq-4" value="" style="endArrow=classic;html=1;strokeWidth=5;" edge="1" parent="1">
          <mxGeometry width="50" height="50" relative="1" as="geometry">
            <mxPoint x="210" y="110" as="sourcePoint" />
            <mxPoint x="210" y="600" as="targetPoint" />
          </mxGeometry>
        </mxCell>
        <mxCell id="4Wl7dw73MDfe35d8DVJq-5" value="" style="endArrow=classic;html=1;strokeWidth=5;" edge="1" parent="1">
          <mxGeometry width="50" height="50" relative="1" as="geometry">
            <mxPoint x="330" y="110" as="sourcePoint" />
            <mxPoint x="330" y="600" as="targetPoint" />
          </mxGeometry>
        </mxCell>
        <mxCell id="4Wl7dw73MDfe35d8DVJq-6" value="&lt;b&gt;DEV&lt;/b&gt;" style="text;html=1;strokeColor=none;fillColor=none;align=center;verticalAlign=middle;whiteSpace=wrap;rounded=0;" vertex="1" parent="1">
          <mxGeometry x="310" y="80" width="40" height="20" as="geometry" />
        </mxCell>
        <mxCell id="4Wl7dw73MDfe35d8DVJq-7" value="" style="endArrow=classic;html=1;strokeWidth=5;" edge="1" parent="1">
          <mxGeometry width="50" height="50" relative="1" as="geometry">
            <mxPoint x="450" y="110" as="sourcePoint" />
            <mxPoint x="450" y="600" as="targetPoint" />
          </mxGeometry>
        </mxCell>
        <mxCell id="4Wl7dw73MDfe35d8DVJq-8" value="&lt;b&gt;RELEASE&lt;/b&gt;" style="text;html=1;strokeColor=none;fillColor=none;align=center;verticalAlign=middle;whiteSpace=wrap;rounded=0;" vertex="1" parent="1">
          <mxGeometry x="430" y="80" width="40" height="20" as="geometry" />
        </mxCell>
        <mxCell id="4Wl7dw73MDfe35d8DVJq-9" value="" style="endArrow=classic;html=1;strokeWidth=5;" edge="1" parent="1">
          <mxGeometry width="50" height="50" relative="1" as="geometry">
            <mxPoint x="570" y="110" as="sourcePoint" />
            <mxPoint x="570" y="600" as="targetPoint" />
          </mxGeometry>
        </mxCell>
        <mxCell id="4Wl7dw73MDfe35d8DVJq-10" value="&lt;b&gt;HOTFIXES&lt;/b&gt;" style="text;html=1;strokeColor=none;fillColor=none;align=center;verticalAlign=middle;whiteSpace=wrap;rounded=0;" vertex="1" parent="1">
          <mxGeometry x="550" y="80" width="40" height="20" as="geometry" />
        </mxCell>
        <mxCell id="4Wl7dw73MDfe35d8DVJq-11" value="" style="endArrow=classic;html=1;strokeWidth=5;" edge="1" parent="1">
          <mxGeometry width="50" height="50" relative="1" as="geometry">
            <mxPoint x="710" y="110" as="sourcePoint" />
            <mxPoint x="710" y="600" as="targetPoint" />
          </mxGeometry>
        </mxCell>
        <mxCell id="4Wl7dw73MDfe35d8DVJq-12" value="&lt;b&gt;PROD&lt;/b&gt;" style="text;html=1;strokeColor=none;fillColor=none;align=center;verticalAlign=middle;whiteSpace=wrap;rounded=0;" vertex="1" parent="1">
          <mxGeometry x="690" y="80" width="40" height="20" as="geometry" />
        </mxCell>
        <mxCell id="4Wl7dw73MDfe35d8DVJq-15" value="" style="ellipse;whiteSpace=wrap;html=1;aspect=fixed;" vertex="1" parent="1">
          <mxGeometry x="130" y="180" width="20" height="20" as="geometry" />
        </mxCell>
        <mxCell id="4Wl7dw73MDfe35d8DVJq-16" value="" style="ellipse;whiteSpace=wrap;html=1;aspect=fixed;" vertex="1" parent="1">
          <mxGeometry x="320" y="180" width="20" height="20" as="geometry" />
        </mxCell>
        <mxCell id="4Wl7dw73MDfe35d8DVJq-17" value="" style="ellipse;whiteSpace=wrap;html=1;aspect=fixed;" vertex="1" parent="1">
          <mxGeometry x="560" y="180" width="20" height="20" as="geometry" />
        </mxCell>
      </root>
    </mxGraphModel>
  </diagram>
</mxfile>
